<?xml version="1.0" encoding="utf-8"?>
<!-- Generator: Adobe Illustrator 24.3.0, SVG Export Plug-In . SVG Version: 6.00 Build 0)  -->
<svg version="1.1" baseProfile="basic" id="Isolation_Mode"
	 xmlns="http://www.w3.org/2000/svg" xmlns:xlink="http://www.w3.org/1999/xlink" x="0px" y="0px" viewBox="0 0 614.1 651.2"
	 xml:space="preserve">
<g>
	<g>
		<g>
			
				<path fill="none" stroke="#FFFFFF" stroke-width="24" stroke-linecap="round" stroke-linejoin="round" stroke-miterlimit="10" d="
				M568,428c-4.8,1.2-4.4,6.1-1.6,20.1c2.9,14.1-7.9,21.5-7.9,21.5c14.9-24.8-6.3-44.4-11.2-40.8c-4.3,3.1-2.4,7.9,4.5,19.9
				c6.9,12-1.8,20.3-1.8,20.3c1.6-10.5-0.2-21.6-9.4-24.5c-6.5-2-8.6,2.5-8.7,5.8c-2.5-9.6-30.1-13.9-23,13.2
				c3.8,14.5,10.8,21.4,17,24.7c-0.7,5.4-2.7,16.9-8.2,28.7c-9.5,20.3-24.9,31.8-45.7,34.3c-40.4,4.8-64.1-23.5-72.5-36.2l11.4-6.6
				c1.5-0.8,2.5-2.3,2.7-4c0.2-1.7-0.3-3.4-1.5-4.6l-8.5-8.7c5.7-0.1,11.9-0.8,18.6-2.1c16.8-3.4,38.8-12.3,48.7-35.1
				c4.1-9.5,4.7-18.3,4.6-23c17.2-8.3,26.5-22.8,26.9-42.4c0.2-11.5-2.7-21.5-4.2-25.9c1.8-3.1,3.2-6.9,4-11.6
				c4.2-25.4-8.9-41.9-9.5-42.6c-0.2-0.3-0.5-0.5-0.7-0.7c0.2-1,0.4-2,0.6-3c3.3-20.4-3.2-48.8-32.1-63.2
				c-3.2-19.1-17-32.7-39.9-39.5c-14.1-4.2-27.6-4.5-32.6-4.5c-1-1-2.1-2.1-3.2-3.2c-4.9-5-10.5-10.6-18.2-15
				c-7.7-4.4-17.5-7.5-30.9-7.5c-9.9,0-18.8,6.5-25.2,18.2c-1.2,2.3-2.4,4.8-3.4,7.5c-1-2.7-2.1-5.2-3.4-7.5
				c-6.3-11.7-15.3-18.2-25.2-18.2c-13.4,0-23.2,3.1-30.9,7.5c-7.7,4.4-13.3,10-18.2,15c-1.1,1.1-2.1,2.2-3.2,3.2
				c-5,0-18.5,0.3-32.6,4.5c-23,6.8-36.7,20.4-39.9,39.5c-29,14.3-35.5,42.8-32.1,63.2c0.2,1,0.4,2,0.6,3c-0.2,0.2-0.5,0.4-0.7,0.7
				c-0.5,0.7-13.7,17.1-9.5,42.6c0.8,4.7,2.2,8.5,4,11.6c-1.5,4.4-4.5,14.4-4.2,25.9c0.4,19.5,9.6,34.1,26.9,42.4
				c-0.1,4.6,0.5,13.4,4.6,23c9.9,22.8,31.9,31.7,48.7,35.1c6.7,1.4,12.9,2,18.6,2.1l-8.5,8.7c-1.2,1.2-1.7,2.9-1.5,4.6
				c0.2,1.7,1.2,3.2,2.7,4l11.5,6.6c-8.5,12.7-32.2,41-72.6,36.2c-20.8-2.5-36.1-14-45.7-34.3c-5.5-11.7-7.5-23.3-8.2-28.7
				c6.2-3.3,13.2-10.2,17-24.7c7.1-27-20.5-22.7-23-13.2c-0.2-3.2-2.2-7.8-8.7-5.8c-9.2,2.8-11.1,14-9.5,24.5c0,0-8.6-8.3-1.8-20.3
				c6.9-12,8.8-16.7,4.5-19.9c-4.9-3.6-26.1,16-11.2,40.8c0,0-10.7-7.4-7.9-21.5c2.9-14.1,3.2-18.9-1.6-20.1
				c-7.4-1.9-28.4,53.9,24.7,62.3c0.8,6.6,3.2,19.7,9.5,33.4c12.1,26.1,32.8,41.6,59.8,44.9c3.8,0.5,7.5,0.7,11.2,0.7
				c22.2,0,42.8-8.1,60.1-23.7c8.8-7.9,14.9-16.2,18.6-21.8l10.6,6.1l-9.2,57c-20.1,0.2-42.6,1.8-47.5,8
				c-9.2,11.7,107,20.9,107,20.9s5.1,23.4,10.7,23.4c5.6,0,0-33.6,0-33.6l-34.4-4.2H347l-34.4,4.2c0,0-5.6,33.6,0,33.6
				c5.6,0,10.7-23.4,10.7-23.4s116.2-9.2,107-20.9c-4.8-6.2-27.3-7.8-47.5-8l-9.2-57l10.6-6.1c3.7,5.6,9.8,13.9,18.6,21.8
				c17.3,15.6,37.9,23.7,60.1,23.7c3.7,0,7.4-0.2,11.2-0.7c27-3.2,47.7-18.7,59.8-44.9c6.3-13.6,8.6-26.7,9.5-33.4
				C596.4,481.9,575.4,426.1,568,428z M73.6,462c3-7.7,6.8-3.4,8.4-9.7c0.1,0.5,0.2,1,0.4,1.6c0,0,0.8,3.3,7.8,2.5
				c7-0.8,2.1,17.8-2.9,18.9C82.4,476.4,68.6,474.6,73.6,462z M526.7,475.3c-5-1.1-9.9-19.7-2.9-18.9s7.8-2.5,7.8-2.5
				c0.2-0.5,0.3-1,0.4-1.6c1.6,6.3,5.4,2,8.4,9.7C545.5,474.6,531.7,476.4,526.7,475.3z"/>
		</g>
		<g>
			<g>
				<g>
					<path fill="#FC8C83" d="M218.2,509c-0.2,0.5-24.6,48.3-76.1,42.1c-20.8-2.5-36.1-14-45.7-34.3c-5.5-11.7-7.5-23.3-8.2-28.7
						c6.2-3.3,13.2-10.2,17-24.7c7.1-27-20.5-22.7-23-13.1c-0.2-3.2-2.2-7.8-8.7-5.8c-9.2,2.8-11.1,14-9.5,24.4
						c0,0-8.6-8.3-1.8-20.3c6.9-12,8.8-16.7,4.5-19.9c-4.9-3.6-26.1,16-11.2,40.8c0,0-10.8-7.4-7.9-21.5c2.9-14.1,3.2-18.9-1.6-20.2
						c-7.4-1.9-28.4,53.9,24.7,62.3c0.8,6.6,3.2,19.7,9.5,33.4c12.1,26.1,32.8,41.6,59.8,44.9c3.8,0.5,7.5,0.7,11.2,0.7
						c22.2,0,42.8-8.1,60.1-23.7c15-13.6,22.4-28.1,22.7-28.7L218.2,509z M73.6,462c3-7.7,6.8-3.4,8.4-9.7c0,0,0,0,0,0
						c0.1,0.5,0.2,1,0.4,1.6c0,0,0.8,3.3,7.8,2.5c7-0.8,2.1,17.8-2.9,18.9C82.4,476.4,68.6,474.6,73.6,462z"/>
					<g>
						<g id="XMLID_3_">
							<polygon fill="#CE9506" points="250.7,466.4 241.8,518 214.8,502.3 249.9,466.4 							"/>
							<path fill="#34257A" d="M261.4,457.3c1,1.2,1.5,2.9,1.2,4.5l-11.3,65.8c-0.3,1.8-1.5,3.3-3.1,4c-0.7,0.3-1.5,0.5-2.3,0.5
								c-1,0-1.9-0.2-2.7-0.7l-40-23.1c-1.5-0.8-2.5-2.3-2.7-4c-0.2-1.7,0.3-3.4,1.5-4.6l41.6-42.7c1-1.1,2.5-1.7,3.9-1.7h9.7
								C258.9,455.4,260.4,456.1,261.4,457.3z M241.8,518l8.9-51.6h-0.9l-35.1,36L241.8,518z"/>
						</g>
					</g>
				</g>
				<g>
					<path fill="#FC8C83" d="M380.1,516.8c0.3,0.6,7.6,15.1,22.7,28.7c17.3,15.6,37.9,23.7,60.1,23.7c3.7,0,7.4-0.2,11.2-0.7
						c27-3.2,47.7-18.7,59.8-44.9c6.3-13.6,8.6-26.7,9.5-33.4c53-8.4,32.1-64.2,24.7-62.3c-4.8,1.2-4.4,6.1-1.6,20.2
						c2.9,14.1-7.9,21.5-7.9,21.5c14.9-24.8-6.3-44.4-11.2-40.8c-4.3,3.1-2.4,7.8,4.5,19.9c6.9,12-1.8,20.3-1.8,20.3
						c1.6-10.5-0.2-21.6-9.5-24.4c-6.5-2-8.6,2.5-8.7,5.8c-2.5-9.6-30.1-13.9-23,13.1c3.8,14.5,10.8,21.4,17,24.7
						c-0.7,5.4-2.7,16.9-8.2,28.7c-9.5,20.3-24.9,31.8-45.7,34.3c-51.5,6.2-75.9-41.6-76.1-42.1L380.1,516.8z M526.7,475.3
						c-5-1.1-9.9-19.7-2.9-18.9c7,0.8,7.8-2.5,7.8-2.5c0.2-0.5,0.3-1.1,0.4-1.6c0,0,0,0,0,0c1.7,6.3,5.4,2,8.4,9.7
						C545.5,474.6,531.7,476.4,526.7,475.3z"/>
					<g>
						<g id="XMLID_4_">
							<polygon fill="#CE9506" points="363.3,466.4 372.2,518 399.3,502.3 364.2,466.4 							"/>
							<path fill="#34257A" d="M356.8,455.4h9.7c1.5,0,2.9,0.6,3.9,1.7l41.6,42.7c1.2,1.2,1.7,2.9,1.5,4.6c-0.2,1.7-1.2,3.2-2.7,4
								l-40,23.1c-0.8,0.5-1.8,0.7-2.8,0.7c-0.8,0-1.6-0.2-2.3-0.5c-1.6-0.8-2.8-2.3-3.1-4l-11.3-65.8c-0.3-1.6,0.2-3.2,1.2-4.5
								C353.7,456.1,355.2,455.4,356.8,455.4z M399.3,502.3l-35.1-36h-0.9l8.9,51.6L399.3,502.3z"/>
						</g>
					</g>
				</g>
			</g>
			<g>
				<g>
					<path fill="#34257A" d="M430.3,594.9c-4.8-6.2-27.3-7.8-47.5-8l-22.2-137.4c-0.4-2.7-2.7-4.6-5.4-4.6h-96.3c-2.7,0-5,2-5.4,4.6
						l-22.2,137.4c-20.1,0.2-42.6,1.8-47.5,8c-9.2,11.7,107,20.9,107,20.9s5.1,23.4,10.7,23.4c5.6,0,0-33.6,0-33.6l-34.4-4.2H347
						l-34.4,4.2c0,0-5.6,33.6,0,33.6c5.6,0,10.7-23.4,10.7-23.4S439.4,606.6,430.3,594.9z M263.6,455.8h86.9l18.6,115H245
						L263.6,455.8z"/>
					<polygon fill="#FCC000" points="369.1,570.8 245,570.8 259,484.3 263.6,455.8 350.5,455.8 355.3,485.5 					"/>
					<path fill="#CE9506" d="M355.3,485.5c-45.7,29.6-91.6,1.8-96.3-1.2l4.6-28.5h86.9L355.3,485.5z"/>
				</g>
				<path fill="#FC8C83" d="M502.1,351c4.2-25.4-8.9-41.9-9.5-42.6c-0.2-0.3-0.4-0.5-0.7-0.7c0.2-1,0.4-2,0.6-3
					c3.3-20.4-3.2-48.8-32.1-63.2c-3.2-19.1-17-32.7-39.9-39.5c-14.1-4.2-27.6-4.5-32.6-4.5c-1-1-2.1-2.1-3.2-3.2
					c-5-5-10.5-10.6-18.2-15c-7.7-4.4-17.5-7.5-30.9-7.5c-9.9,0-18.8,6.5-25.2,18.2c-1.2,2.3-2.4,4.8-3.4,7.5
					c-1-2.7-2.1-5.2-3.4-7.5c-6.3-11.7-15.3-18.2-25.2-18.2c-13.4,0-23.2,3.1-30.9,7.5c-7.7,4.4-13.2,10-18.2,15
					c-1.1,1.1-2.1,2.2-3.2,3.2c-5,0-18.5,0.3-32.6,4.5c-23,6.8-36.7,20.4-39.9,39.5c-29,14.3-35.5,42.8-32.1,63.2c0.2,1,0.4,2,0.6,3
					c-0.2,0.2-0.5,0.4-0.7,0.7c-0.6,0.7-13.7,17.1-9.5,42.6c0.8,4.7,2.2,8.5,4,11.6c-1.5,4.4-4.5,14.4-4.2,25.9
					c0.4,19.5,9.6,34.1,26.9,42.4c-0.1,4.6,0.5,13.4,4.6,23c9.9,22.8,31.9,31.6,48.7,35.1c7.5,1.5,14.2,2.2,20.4,2.2
					c27.6,0,42.6-13.1,48.3-19.7c0.2-0.3,0.5-0.5,0.7-0.8c11.5,10.1,27.8,16.4,45.8,16.4c18,0,34.2-6.3,45.8-16.4
					c-0.1-0.1-0.1-0.2-0.2-0.3c0.3,0.4,0.6,0.7,0.9,1c5.7,6.6,20.7,19.7,48.3,19.7c6.2,0,12.9-0.6,20.4-2.2
					c16.8-3.4,38.8-12.3,48.7-35.1c4.1-9.5,4.7-18.3,4.6-23c17.2-8.3,26.5-22.8,26.9-42.4c0.2-11.5-2.7-21.5-4.2-25.9
					C499.9,359.5,501.4,355.7,502.1,351z M268.7,458.3c-0.3,0.7-0.6,1.5-1,2.2C268,459.8,268.4,459.1,268.7,458.3z"/>
				<g>
					<path fill="#FC8C83" d="M347.2,462.3C337.4,471.3,323,477,307,477c-16,0-30.4-5.7-40.2-14.8c0.1-0.2,0.2-0.4,0.3-0.6
						c0.2-0.4,0.4-0.7,0.6-1.1c0.4-0.7,0.7-1.5,1-2.2c0.2-0.4,0.3-0.8,0.5-1.2c0.1-0.4,0.3-0.8,0.4-1.2c0.1-0.4,0.3-0.8,0.4-1.2
						c0.1-0.4,0.2-0.8,0.3-1.2c0.2-0.8,0.4-1.6,0.6-2.3c0.1-0.3,0.1-0.7,0.2-1c0.2-1.2,0.4-2.4,0.4-3.6c0.1-0.8,0.1-1.5,0.1-2.3
						c2.8,1.1,6.1,1.9,9.7,1.9c5,0,10.6-1.4,16.8-5.1c4.2-2.5,7.2-5.9,9-9.9c1.8,4.1,4.8,7.4,9,9.9c6.2,3.7,11.9,5.1,16.8,5.1
						c3.6,0,6.9-0.7,9.7-1.9c0,0.8,0,1.5,0.1,2.3c0.1,1.2,0.2,2.4,0.4,3.6c0.1,0.3,0.1,0.7,0.2,1c0.2,0.8,0.3,1.6,0.6,2.3
						c0.1,0.4,0.2,0.8,0.3,1.2c0.6,1.9,1.3,3.9,2.2,5.7C346.6,461.1,346.9,461.7,347.2,462.3z"/>
					<g>
						<g>
							<g id="XMLID_1_">
								<path fill="#FC8C83" d="M253.8,465.4c-6,6.9-23.9,22-60.1,14.6c-50.2-10.2-46.2-49.8-46-51.5c0.3-2-0.9-3.9-2.7-4.7
									c-29.2-12.2-25.5-40.4-22-53.4c5.6,4.1,12,5.3,16.2,5.7c1.2,9.2,6.2,31,26.1,46.9c21.5,17.1,53.4,21.7,94.9,13.7
									c0.4,0.5,0.9,1,1.5,1.5C264.1,446.5,261.1,457.1,253.8,465.4z"/>
								<path fill="#FC8C83" d="M288.9,391.4c0.2-1.2,0.9-2.2,1.8-2.9c0.5-0.4,11.8-8.9,7.2-28.8c-9.5,13.3-22,15.8-22.6,16
									c-0.3,0.1-2.9,0.5-6.8,0.5c-6.9,0-17.7-1.5-26.4-9.5c-9.7-8.8-14.1-22.9-13.4-42c-18,2.9-46,0.9-53.1-23.6
									c-0.7-2.4,0.7-4.9,3.1-5.6c2.4-0.7,4.9,0.7,5.6,3.1c7.5,25.9,47.8,16.2,48.2,16.1c1.4-0.4,2.9,0,4,1c1.1,1,1.7,2.4,1.6,3.8
									c-1.8,19.2,1.6,32.8,10.1,40.5c10.4,9.5,25.3,6.8,25.5,6.7c0.4-0.1,12-2.6,19.5-16.4c12.9-23.8,3.5-61.5-7.1-89.8
									c-11-0.7-21.1-10.6-26.3-16.6c-4.9,6.2-12.6,12-24.6,15.3c-0.4,0.1-0.8,0.2-1.2,0.2c-2,0-3.8-1.3-4.3-3.3
									c-0.7-2.4,0.8-4.9,3.2-5.5c31.1-8.5,26.7-36.1,26.5-37.2c-0.4-2.5,1.2-4.8,3.7-5.2c2.5-0.4,4.8,1.2,5.2,3.7
									c0.1,0.4,1.6,9.4-1.8,19.7c-0.5,1.4-1,2.9-1.7,4.4c4.3,5.4,14.2,15.7,22.5,15.7h0.2c3.5-0.1,6.5-2.1,9.2-6.3
									c7.1-10.9,8.7-32.9-0.9-50.8c-1.4-2.5-3.5-5.9-6.4-8.6c-2.9-2.7-6.5-4.9-10.8-4.9c-23.1,0-33.5,10.5-42.7,19.8
									c-1.6,1.6-3.1,3.2-4.7,4.7c-0.9,0.8-2.1,1.3-3.3,1.2c-0.2,0-15.9-0.6-31.8,4.2c-20.3,6-31.6,17.5-33.7,34.1
									c0.1,2.7,1.2,23.5,18.8,23.5h0.1c2.5,0,4.5,2,4.5,4.5c0,2.5-2,4.5-4.5,4.5h-0.1c-7.3,0-13.5-2.4-18.2-7.1
									c-5.6-5.5-7.9-13.2-8.9-18.7c-21.4,12.6-26.4,34.4-23.6,51.6c2.3,14,9.8,24.7,17.8,25.5c2.5,0.2,4.3,2.5,4,4.9
									c-0.2,2.3-2.2,4.1-4.5,4.1c-0.1,0-0.3,0-0.5,0c-9-0.9-16.9-8.1-21.8-19.1c-3,5.7-7.1,16.5-4.7,30.9
									c3.1,18.8,20.1,17.8,22,17.6c0.1,0,0.2,0,0.3,0c0.1,0,0.3,0,0.4,0c18.3,0.9,25.2-6.5,25.5-6.8c1.6-1.9,4.4-2.1,6.3-0.5
									c1.9,1.6,2.1,4.5,0.5,6.4c-0.4,0.4-8.3,9.4-27.5,9.9c1.4,8.5,6.2,26.7,22.7,39.8c19.8,15.6,50.1,19.5,89.9,11.3
									c1.7-0.4,3.5,0.4,4.6,1.8c0.3,0.4,1.2,1.5,2.6,2.8c0.4,0.2,0.7,0.5,1,0.9c4.4,3.6,12.8,7.6,24.4,0.6
									c3.4-2.1,5.5-4.9,6.2-8.5c2.1-10.3-6.4-25.2-9.9-30C289,393.8,288.7,392.6,288.9,391.4z M232.7,416.4L232.7,416.4
									c-5.1-0.1-9.6-2-13.3-5.5c-2.8,0.5-5.5,0.7-8,0.7c-7.5,0-13.5-2.1-17.9-6.4c-10.1-9.7-7.4-26.5-7.2-27.2
									c0.4-2.5,2.7-4.1,5.2-3.7c2.5,0.4,4.1,2.7,3.7,5.2c0,0.2-2,12.8,4.6,19.2c3,2.9,7.6,4.2,13.7,3.8c-2.8-5.6-3.7-11-3.7-11.2
									c-0.4-2.5,1.3-4.8,3.7-5.2c2.5-0.4,4.8,1.3,5.2,3.7c0,0.2,3.1,17.3,14.2,17.6c2.5,0.1,4.5,2.1,4.4,4.6
									C237.2,414.5,235.2,416.4,232.7,416.4z"/>
							</g>
						</g>
						<g>
							<g id="XMLID_2_">
								<path fill="#FC8C83" d="M469.1,423.8c-1.9,0.8-3,2.7-2.7,4.7c0.2,1.7,4.2,41.3-46,51.5c-36.3,7.4-54.1-7.8-60.1-14.6
									c-7.3-8.3-10.3-18.9-7.8-27.3c0.6-0.5,1.1-1,1.5-1.5c41.4,8,73.3,3.4,94.8-13.7c20-15.8,24.9-37.7,26.1-46.9
									c4.2-0.3,10.6-1.6,16.2-5.7C494.6,383.4,498.3,411.7,469.1,423.8z"/>
								<path fill="#FC8C83" d="M488.5,318.7c-4.8,11-12.8,18.2-21.8,19.1c-0.2,0-0.3,0-0.4,0c-2.3,0-4.3-1.7-4.5-4.1
									c-0.3-2.5,1.6-4.7,4-4.9c8-0.8,15.5-11.5,17.8-25.5c2.8-17.2-2.2-39-23.6-51.6c-1,5.5-3.3,13.1-8.9,18.7
									c-4.7,4.7-10.9,7.1-18.2,7.1h-0.1c-2.5,0-4.5-2-4.5-4.5c0-2.5,2-4.5,4.5-4.5h0.1c17.7,0,18.7-20.8,18.8-23.5
									c-2-16.6-13.4-28.1-33.7-34.1c-16-4.7-31.7-4.2-31.8-4.2c-1.2,0.1-2.4-0.4-3.3-1.2c-1.6-1.5-3.1-3-4.7-4.7
									c-9.2-9.3-19.6-19.8-42.7-19.8c-4.3,0-7.9,2.1-10.8,4.9c-2.9,2.7-5,6.1-6.4,8.6c-9.7,17.9-8.1,39.9-0.9,50.8
									c2.7,4.1,5.7,6.2,9.2,6.3h0.2c8.3,0,18.2-10.3,22.5-15.7c-0.7-1.5-1.2-3-1.7-4.4c-3.3-10.3-1.8-19.3-1.8-19.7
									c0.4-2.5,2.8-4.1,5.2-3.7c2.5,0.4,4.1,2.8,3.7,5.2c-0.2,1.2-4.6,28.7,26.5,37.2c2.4,0.7,3.8,3.1,3.2,5.5
									c-0.6,2-2.4,3.3-4.3,3.3c-0.4,0-0.8-0.1-1.2-0.2c-12-3.3-19.7-9.1-24.6-15.3c-5.1,5.9-15.3,15.9-26.3,16.6
									c-10.6,28.3-20.1,66.1-7.1,89.8c7.5,13.8,19.1,16.3,19.5,16.4c0.1,0,15,2.7,25.5-6.7c8.4-7.7,11.8-21.3,10.1-40.5
									c-0.1-1.5,0.4-2.9,1.6-3.8c1.1-0.9,2.6-1.3,4-1c0.4,0.1,40.7,9.8,48.2-16.1c0.7-2.4,3.2-3.8,5.6-3.1
									c2.4,0.7,3.8,3.2,3.1,5.6c-7.1,24.4-35.1,26.4-53.1,23.6c0.8,19.1-3.7,33.2-13.4,42c-8.8,8-19.6,9.5-26.4,9.5
									c-3.9,0-6.5-0.5-6.8-0.5c-0.6-0.1-13.1-2.7-22.6-16c-4.6,19.9,6.7,28.4,7.2,28.8c1,0.7,1.7,1.8,1.8,2.9
									c0.2,1.2-0.1,2.4-0.8,3.4c-3.5,4.9-12,19.7-9.9,30c0.8,3.7,2.8,6.5,6.2,8.5c11.5,6.9,19.9,3,24.4-0.6c0.3-0.3,0.6-0.6,1-0.9
									c1.4-1.3,2.3-2.4,2.6-2.8c1-1.5,2.8-2.2,4.6-1.8c39.9,8.1,70.1,4.3,89.9-11.3c16.5-13,21.3-31.3,22.7-39.8
									c-19.2-0.5-27.1-9.5-27.5-9.9c-1.6-1.9-1.4-4.8,0.5-6.4c1.9-1.6,4.7-1.4,6.3,0.5c0.3,0.3,7.2,7.7,25.5,6.8
									c0.1,0,0.3,0,0.4,0c0.1,0,0.2,0,0.3,0c1.9,0.2,18.8,1.2,22-17.6C495.6,335.2,491.5,324.4,488.5,318.7z M420.5,405.2
									c-4.4,4.3-10.4,6.4-17.9,6.4c-2.5,0-5.2-0.2-8-0.7c-3.7,3.5-8.2,5.4-13.2,5.5h-0.1c-2.4,0-4.5-2-4.5-4.4
									c-0.1-2.5,1.9-4.5,4.4-4.6c11.1-0.2,14.2-17.3,14.2-17.6c0.4-2.5,2.7-4.1,5.2-3.7c2.5,0.4,4.1,2.7,3.7,5.2
									c0,0.2-0.9,5.6-3.7,11.2c6,0.4,10.6-0.9,13.7-3.8c6.6-6.4,4.7-19,4.6-19.2c-0.4-2.5,1.2-4.8,3.7-5.2
									c2.5-0.4,4.8,1.2,5.2,3.7C427.9,378.7,430.6,395.5,420.5,405.2z"/>
							</g>
						</g>
						<g>
							<path fill="#F76C69" d="M232.8,407.4c2.5,0.1,4.5,2.1,4.4,4.6c0,2.5-2.1,4.4-4.5,4.4c0,0-0.1,0-0.1,0c-5-0.1-9.5-2-13.2-5.5
								c-2.8,0.5-5.5,0.7-8,0.7c-7.5,0-13.5-2.1-17.9-6.4c-10.1-9.7-7.4-26.5-7.2-27.2c0.4-2.5,2.7-4.1,5.2-3.7
								c2.5,0.4,4.1,2.7,3.7,5.2c0,0.2-2,12.8,4.6,19.2c3,2.9,7.6,4.2,13.7,3.8c-2.8-5.6-3.7-11-3.7-11.2c-0.4-2.5,1.3-4.8,3.7-5.2
								c2.5-0.4,4.8,1.3,5.2,3.7C218.7,390.1,221.7,407.2,232.8,407.4z"/>
							<path fill="#F76C69" d="M381.2,407.4c-2.5,0.1-4.5,2.1-4.4,4.6c0,2.5,2.1,4.4,4.5,4.4c0,0,0.1,0,0.1,0c5-0.1,9.5-2,13.2-5.5
								c2.8,0.5,5.5,0.7,8,0.7c7.5,0,13.5-2.1,17.9-6.4c10.1-9.7,7.4-26.5,7.2-27.2c-0.4-2.5-2.7-4.1-5.2-3.7
								c-2.5,0.4-4.1,2.7-3.7,5.2c0,0.2,2,12.8-4.6,19.2c-3,2.9-7.6,4.2-13.7,3.8c2.8-5.6,3.7-11,3.7-11.2c0.4-2.5-1.3-4.8-3.7-5.2
								c-2.5-0.4-4.8,1.3-5.2,3.7C395.4,390.1,392.3,407.2,381.2,407.4z"/>
							<path fill="#F76C69" d="M502.1,351c4.2-25.4-8.9-41.9-9.5-42.6c-0.2-0.3-0.4-0.5-0.7-0.7c0.2-1,0.4-2,0.6-3
								c3.3-20.4-3.2-48.8-32.1-63.2c-3.2-19.1-17-32.7-39.9-39.5c-14.1-4.2-27.6-4.5-32.6-4.5c-1-1-2.1-2.1-3.2-3.2
								c-5-5-10.5-10.6-18.2-15c-7.7-4.4-17.5-7.5-30.9-7.5c-9.9,0-18.8,6.5-25.2,18.2c-1.2,2.3-2.4,4.8-3.4,7.5
								c-1-2.7-2.1-5.2-3.4-7.5c-6.3-11.7-15.3-18.2-25.2-18.2c-13.4,0-23.2,3.1-30.9,7.5c-7.7,4.4-13.2,10-18.2,15
								c-1.1,1.1-2.1,2.2-3.2,3.2c-5,0-18.5,0.3-32.6,4.5c-23,6.8-36.7,20.4-39.9,39.5c-29,14.3-35.5,42.8-32.1,63.2
								c0.2,1,0.4,2,0.6,3c-0.2,0.2-0.5,0.4-0.7,0.7c-0.6,0.7-13.7,17.1-9.5,42.6c0.8,4.7,2.2,8.5,4,11.6
								c-1.5,4.4-4.5,14.4-4.2,25.9c0.4,19.5,9.6,34.1,26.9,42.4c-0.1,4.6,0.5,13.4,4.6,23c9.9,22.8,31.9,31.6,48.7,35.1
								c7.5,1.5,14.2,2.2,20.4,2.2c27.6,0,42.6-13.1,48.3-19.7c0.2-0.3,0.5-0.5,0.7-0.8c11.5,10.1,27.8,16.4,45.8,16.4
								c18,0,34.2-6.3,45.8-16.4c-0.1-0.1-0.1-0.2-0.2-0.3c0.3,0.4,0.6,0.7,0.9,1c5.7,6.6,20.7,19.7,48.3,19.7
								c6.2,0,12.9-0.6,20.4-2.2c16.8-3.4,38.8-12.3,48.7-35.1c4.1-9.5,4.7-18.3,4.6-23c17.2-8.3,26.5-22.8,26.9-42.4
								c0.2-11.5-2.7-21.5-4.2-25.9C499.9,359.5,501.4,355.7,502.1,351z M307,431.2c1.8,4.1,4.8,7.4,9,9.9
								c6.2,3.7,11.9,5.1,16.8,5.1c3.6,0,6.9-0.7,9.7-1.9c0,0.8,0,1.5,0.1,2.3c0.1,1.2,0.2,2.4,0.4,3.6c0.1,0.3,0.1,0.7,0.2,1
								c0.2,0.8,0.3,1.6,0.6,2.3c0.1,0.4,0.2,0.8,0.3,1.2c0.6,1.9,1.3,3.8,2.2,5.7c0.4,0.7,0.7,1.5,1.1,2.2
								c-0.1-0.1-0.1-0.2-0.2-0.3c0-0.1-0.1-0.2-0.1-0.3C337.4,471.3,323,477,307,477c-16,0-30.4-5.7-40.2-14.8
								c-0.1,0.2-0.2,0.3-0.3,0.5c0.2-0.4,0.4-0.7,0.6-1.1c0.2-0.4,0.4-0.8,0.6-1.1c0.4-0.7,0.7-1.5,1-2.2c0.2-0.4,0.3-0.8,0.5-1.2
								c0.1-0.4,0.3-0.8,0.4-1.2c0.1-0.4,0.2-0.8,0.4-1.2c0.1-0.4,0.2-0.8,0.3-1.2c0.2-0.8,0.4-1.6,0.6-2.3c0.1-0.3,0.1-0.7,0.2-1
								c0.2-1.2,0.4-2.4,0.4-3.6c0.1-0.8,0.1-1.5,0.1-2.3c2.8,1.1,6.1,1.9,9.7,1.9c5,0,10.6-1.4,16.8-5.1
								C302.2,438.6,305.2,435.2,307,431.2z M125.6,318.7c4.8,11,12.8,18.2,21.8,19.1c0.2,0,0.3,0,0.5,0c2.3,0,4.3-1.7,4.5-4.1
								c0.3-2.5-1.6-4.7-4-4.9c-8-0.8-15.5-11.5-17.8-25.5c-2.8-17.2,2.2-39,23.6-51.6c1,5.5,3.3,13.1,8.9,18.7
								c4.7,4.7,10.9,7.1,18.2,7.1h0.1c2.5,0,4.5-2,4.5-4.5c0-2.5-2-4.5-4.5-4.5h-0.1c-17.7,0-18.7-20.8-18.8-23.5
								c2-16.6,13.4-28.1,33.7-34.1c16-4.7,31.7-4.2,31.8-4.2c1.2,0.1,2.4-0.4,3.3-1.2c1.6-1.5,3.1-3,4.7-4.7
								c9.2-9.3,19.6-19.8,42.7-19.8c4.3,0,7.9,2.1,10.8,4.9c2.9,2.7,5,6.1,6.4,8.6c9.7,17.9,8.1,39.9,0.9,50.8
								c-2.7,4.1-5.7,6.2-9.2,6.3h-0.2c-8.3,0-18.2-10.3-22.5-15.7c0.7-1.5,1.2-3,1.7-4.4c3.3-10.3,1.8-19.3,1.8-19.7
								c-0.4-2.5-2.8-4.1-5.2-3.7c-2.5,0.4-4.1,2.8-3.7,5.2c0.2,1.2,4.6,28.7-26.5,37.2c-2.4,0.7-3.8,3.1-3.2,5.5
								c0.6,2,2.4,3.3,4.3,3.3c0.4,0,0.8-0.1,1.2-0.2c12-3.3,19.7-9.1,24.6-15.3c5.1,5.9,15.3,15.9,26.3,16.6
								c10.6,28.3,20.1,66.1,7.1,89.8c-7.5,13.8-19.1,16.3-19.5,16.4c-0.1,0-15,2.7-25.5-6.7c-8.4-7.7-11.8-21.3-10.1-40.5
								c0.1-1.5-0.4-2.9-1.6-3.8c-1.1-0.9-2.6-1.3-4-1c-0.4,0.1-40.7,9.8-48.2-16.1c-0.7-2.4-3.2-3.8-5.6-3.1
								c-2.4,0.7-3.8,3.2-3.1,5.6c7.1,24.4,35.1,26.4,53.1,23.6c-0.8,19.1,3.7,33.2,13.4,42c8.8,8,19.6,9.5,26.4,9.5
								c3.9,0,6.5-0.5,6.8-0.5c0.6-0.1,13.1-2.7,22.6-16c4.6,19.9-6.7,28.4-7.2,28.8c-1,0.7-1.7,1.8-1.8,2.9
								c-0.2,1.2,0.1,2.4,0.8,3.4c3.5,4.9,12,19.7,9.9,30c-0.8,3.7-2.8,6.5-6.2,8.5c-11.5,6.9-19.9,3-24.4-0.6
								c-0.3-0.3-0.6-0.6-1-0.9c-1.4-1.3-2.3-2.4-2.6-2.8c-1-1.5-2.8-2.2-4.6-1.8c-39.9,8.1-70.1,4.3-89.9-11.3
								c-16.5-13-21.3-31.3-22.7-39.8c19.2-0.5,27.1-9.5,27.5-9.9c1.6-1.9,1.4-4.8-0.5-6.4c-1.9-1.6-4.7-1.4-6.3,0.5
								c-0.3,0.3-7.2,7.7-25.5,6.8c-0.1,0-0.3,0-0.4,0c-0.1,0-0.2,0-0.3,0c-1.9,0.2-18.8,1.2-22-17.6
								C118.4,335.2,122.5,324.4,125.6,318.7z M253.8,465.4c-6,6.9-23.9,22-60.1,14.6c-50.2-10.2-46.2-49.8-46-51.5
								c0.3-2-0.9-3.9-2.7-4.7c-29.2-12.2-25.5-40.4-22-53.4c5.6,4.1,12,5.3,16.2,5.7c1.2,9.2,6.2,31,26.1,46.9
								c21.5,17.1,53.4,21.7,94.9,13.7c0.4,0.5,0.9,1,1.5,1.5C264.1,446.5,261.1,457.1,253.8,465.4z M469.1,423.8
								c-1.9,0.8-3,2.7-2.7,4.7c0.2,1.7,4.2,41.3-46,51.5c-36.3,7.4-54.1-7.8-60.1-14.6c-7.3-8.3-10.3-18.9-7.8-27.3
								c0.6-0.5,1.1-1,1.5-1.5c41.4,8,73.3,3.4,94.8-13.7c20-15.8,24.9-37.7,26.1-46.9c4.2-0.3,10.6-1.6,16.2-5.7
								C494.6,383.4,498.3,411.7,469.1,423.8z M493.2,349.6c-3.1,18.8-20.1,17.8-22,17.6c-0.1,0-0.2,0-0.3,0c-0.1,0-0.3,0-0.4,0
								c-18.3,0.9-25.2-6.5-25.5-6.8c-1.6-1.9-4.4-2.1-6.3-0.5c-1.9,1.6-2.1,4.5-0.5,6.4c0.4,0.4,8.3,9.4,27.5,9.9
								c-1.4,8.5-6.2,26.7-22.7,39.8c-19.8,15.6-50.1,19.5-89.9,11.3c-1.7-0.4-3.5,0.4-4.6,1.8c-0.3,0.4-1.2,1.5-2.6,2.8
								c-0.4,0.2-0.7,0.5-1,0.9c-4.4,3.6-12.8,7.6-24.4,0.6c-3.4-2.1-5.5-4.9-6.2-8.5c-2.1-10.3,6.4-25.2,9.9-30
								c0.7-1,1-2.2,0.8-3.4c-0.2-1.2-0.9-2.2-1.8-2.9c-0.5-0.4-11.8-8.9-7.2-28.8c9.5,13.3,22,15.8,22.6,16
								c0.3,0.1,2.9,0.5,6.8,0.5c6.9,0,17.7-1.5,26.4-9.5c9.7-8.8,14.1-22.9,13.4-42c18,2.9,46,0.9,53.1-23.6
								c0.7-2.4-0.7-4.9-3.1-5.6c-2.4-0.7-4.9,0.7-5.6,3.1c-7.5,25.9-47.8,16.2-48.2,16.1c-1.4-0.4-2.9,0-4,1
								c-1.1,1-1.7,2.4-1.6,3.8c1.8,19.2-1.6,32.8-10.1,40.5c-10.4,9.5-25.3,6.8-25.5,6.7c-0.4-0.1-12-2.6-19.5-16.4
								c-12.9-23.8-3.5-61.5,7.1-89.8c11-0.7,21.1-10.6,26.3-16.6c4.9,6.2,12.6,12,24.6,15.3c0.4,0.1,0.8,0.2,1.2,0.2
								c2,0,3.8-1.3,4.3-3.3c0.7-2.4-0.8-4.9-3.2-5.5c-31.1-8.5-26.7-36.1-26.5-37.2c0.4-2.5-1.2-4.8-3.7-5.2
								c-2.5-0.4-4.8,1.2-5.2,3.7c-0.1,0.4-1.6,9.4,1.8,19.7c0.5,1.4,1,2.9,1.7,4.4c-4.3,5.4-14.2,15.7-22.5,15.7h-0.2
								c-3.5-0.1-6.5-2.1-9.2-6.3c-7.1-10.9-8.7-32.9,0.9-50.8c1.4-2.5,3.5-5.9,6.4-8.6c2.9-2.7,6.5-4.9,10.8-4.9
								c23.1,0,33.5,10.5,42.7,19.8c1.6,1.6,3.1,3.2,4.7,4.7c0.9,0.8,2.1,1.3,3.3,1.2c0.2,0,15.9-0.6,31.8,4.2
								c20.3,6,31.6,17.5,33.7,34.1c-0.1,2.7-1.2,23.5-18.8,23.5h-0.1c-2.5,0-4.5,2-4.5,4.5c0,2.5,2,4.5,4.5,4.5h0.1
								c7.3,0,13.5-2.4,18.2-7.1c5.6-5.5,7.9-13.2,8.9-18.7c21.4,12.6,26.4,34.4,23.6,51.6c-2.3,14-9.8,24.7-17.8,25.5
								c-2.5,0.2-4.3,2.5-4,4.9c0.2,2.3,2.2,4.1,4.5,4.1c0.1,0,0.3,0,0.4,0c9-0.9,16.9-8.1,21.8-19.1
								C491.5,324.4,495.6,335.2,493.2,349.6z"/>
						</g>
					</g>
				</g>
			</g>
			<g>
				<g>
					<path fill="#34257A" d="M350.7,435c0,6.2-2.9,11.9-7.8,16.6c-4.5,4.3-10.7,7.8-18,9.9c-5.5,1.6-11.5,2.5-17.9,2.5
						c-6.4,0-12.4-0.9-17.9-2.5c-7.3-2.2-13.5-5.6-18-9.9c-4.9-4.7-7.8-10.4-7.8-16.6c0-11.7,10.4-6.3,25.4-2.6
						c5.6,1.4,11.8,2.6,18.3,2.6c6.5,0,12.7-1.2,18.3-2.6C340.3,428.7,350.7,423.3,350.7,435z"/>
				</g>
				<path fill="#F76C69" d="M324.9,459.3c-5.5,1.6-11.5,2.5-17.9,2.5c-6.4,0-12.4-0.9-17.9-2.5c1.2-8.8,8.8-15.5,17.9-15.5
					C316.1,443.8,323.7,450.5,324.9,459.3z"/>
			</g>
			<g>
				<path fill="#34257A" d="M279.8,387.5c0,0,0.1,0.4,0.1,1.1c0,0.3,0.1,0.8,0.2,1.3c0,0.3,0.1,0.5,0.1,0.8c0,0.3,0,0.7,0,1
					c0,0.7,0,1.6-0.1,2.5c-0.1,0.9-0.2,1.8-0.4,2.8c-0.2,1-0.5,2-0.7,3.2c-0.3,1.1-0.8,2.2-1.2,3.4c-0.5,1.1-1.1,2.3-1.8,3.5
					c-0.7,1.2-1.5,2.4-2.4,3.5c-1.8,2.4-4.1,4.5-6.7,6.4c-0.7,0.5-1.4,0.9-2.1,1.4c-0.7,0.4-1.5,0.8-2.2,1.2l-1.1,0.6l-1.2,0.5
					c-0.8,0.3-1.6,0.6-2.4,0.9c-1.7,0.5-3.3,1-5.1,1.2c-0.9,0.1-1.7,0.3-2.6,0.3l-1.3,0.1l-0.7,0l-0.3,0l-0.2,0l-0.1,0l0,0
					c-0.1,0,0.3,0-0.3,0l-2.2-0.1l-0.6,0c-0.2,0-0.4,0-0.6-0.1l-1.4-0.2c-0.9-0.2-1.9-0.3-2.7-0.5c-0.8-0.2-1.7-0.5-2.5-0.7
					c-0.8-0.3-1.6-0.6-2.4-0.9l-1.2-0.5l-1.1-0.6c-0.7-0.4-1.5-0.7-2.2-1.2c-0.7-0.4-1.4-0.9-2.1-1.4c-2.6-1.9-5-4.1-6.7-6.4
					c-1-1.1-1.7-2.4-2.4-3.5c-0.7-1.2-1.3-2.4-1.8-3.5c-0.4-1.2-0.9-2.3-1.2-3.4c-0.3-1.1-0.6-2.2-0.7-3.2c-0.1-1-0.3-1.9-0.4-2.8
					c0-0.9,0-1.7-0.1-2.4c0-0.4,0-0.7,0-1c0-0.3,0.1-0.6,0.1-0.9c0.1-0.5,0.1-1,0.2-1.4c0.1-0.7,0.1-1.1,0.1-1.1
					c0.2-1.2,1.3-2.1,2.5-1.9c0.9,0.1,1.6,0.8,1.9,1.6l0.1,0.3c0,0,0.1,0.3,0.3,1c0.2,0.6,0.3,1.6,0.7,2.7c0.2,0.6,0.4,1.2,0.6,1.8
					c0.3,0.6,0.6,1.3,0.9,2.1c0.3,0.7,0.8,1.5,1.2,2.2c0.4,0.8,1,1.5,1.5,2.3c0.6,0.8,1.2,1.6,1.8,2.3c0.7,0.7,1.3,1.6,2.2,2.3
					c1.5,1.5,3.4,2.8,5.3,4c2,1.2,4.2,2,6.4,2.7c0.6,0.1,1.2,0.3,1.7,0.4c0.3,0.1,0.6,0.1,0.8,0.1l0.8,0.1l0.8,0.1
					c0.1,0,0.3,0,0.5,0l0.6,0l2.2,0.1c-0.6,0-0.1,0-0.3,0h0l0.1,0l0.1,0l0.2,0l0.4,0l0.9,0c0.6,0,1.2-0.1,1.8-0.2
					c0.6-0.1,1.2-0.1,1.8-0.3c0.6-0.1,1.2-0.3,1.7-0.4c2.2-0.7,4.4-1.5,6.4-2.7c1.9-1.2,3.8-2.4,5.3-4c0.8-0.7,1.5-1.5,2.2-2.3
					c0.7-0.8,1.2-1.6,1.8-2.3c0.5-0.8,1-1.6,1.5-2.3c0.4-0.8,0.8-1.5,1.2-2.2c0.3-0.7,0.6-1.4,0.9-2.1c0.2-0.6,0.4-1.2,0.6-1.7
					c0.1-0.3,0.2-0.5,0.3-0.8c0.1-0.3,0.1-0.5,0.2-0.8c0.1-0.5,0.2-0.9,0.3-1.3c0.2-0.7,0.3-1,0.3-1c0.3-1.2,1.5-1.9,2.7-1.6
					C279.1,385.8,279.7,386.6,279.8,387.5z"/>
				<path fill="#34257A" d="M398.9,387.5c0,0,0.1,0.4,0.1,1.1c0,0.3,0.1,0.8,0.2,1.3c0,0.3,0.1,0.5,0.1,0.8c0,0.3,0,0.7,0,1
					c0,0.7,0,1.6-0.1,2.5c-0.1,0.9-0.2,1.8-0.4,2.8c-0.2,1-0.5,2-0.7,3.2c-0.3,1.1-0.8,2.2-1.2,3.4c-0.5,1.1-1.1,2.3-1.8,3.5
					c-0.7,1.2-1.5,2.4-2.4,3.5c-1.8,2.4-4.1,4.5-6.7,6.4c-0.7,0.5-1.4,0.9-2.1,1.4c-0.7,0.4-1.5,0.8-2.2,1.2l-1.1,0.6l-1.2,0.5
					c-0.8,0.3-1.6,0.6-2.4,0.9c-1.7,0.5-3.3,1-5.1,1.2c-0.9,0.1-1.7,0.3-2.6,0.3l-1.3,0.1l-0.7,0l-0.3,0l-0.2,0l-0.1,0l0,0
					c-0.1,0,0.3,0-0.3,0l-2.2-0.1l-0.6,0c-0.2,0-0.4,0-0.6-0.1l-1.4-0.2c-0.9-0.2-1.9-0.3-2.7-0.5c-0.8-0.2-1.7-0.5-2.5-0.7
					c-0.8-0.3-1.6-0.6-2.4-0.9l-1.2-0.5l-1.1-0.6c-0.7-0.4-1.5-0.7-2.2-1.2c-0.7-0.4-1.4-0.9-2.1-1.4c-2.6-1.9-5-4.1-6.7-6.4
					c-1-1.1-1.7-2.4-2.4-3.5c-0.7-1.2-1.3-2.4-1.8-3.5c-0.4-1.2-0.9-2.3-1.2-3.4c-0.3-1.1-0.6-2.2-0.7-3.2c-0.1-1-0.3-1.9-0.4-2.8
					c0-0.9,0-1.7-0.1-2.4c0-0.4,0-0.7,0-1c0-0.3,0.1-0.6,0.1-0.9c0.1-0.5,0.1-1,0.2-1.4c0.1-0.7,0.1-1.1,0.1-1.1
					c0.2-1.2,1.3-2.1,2.5-1.9c0.9,0.1,1.6,0.8,1.9,1.6l0.1,0.3c0,0,0.1,0.3,0.3,1c0.2,0.6,0.3,1.6,0.7,2.7c0.2,0.6,0.4,1.2,0.6,1.8
					c0.3,0.6,0.6,1.3,0.9,2.1c0.3,0.7,0.8,1.5,1.2,2.2c0.4,0.8,1,1.5,1.5,2.3c0.6,0.8,1.2,1.6,1.8,2.3c0.7,0.7,1.3,1.6,2.2,2.3
					c1.5,1.5,3.4,2.8,5.3,4c2,1.2,4.2,2,6.4,2.7c0.6,0.1,1.2,0.3,1.7,0.4c0.3,0.1,0.6,0.1,0.8,0.1l0.8,0.1l0.8,0.1
					c0.1,0,0.3,0,0.5,0l0.6,0l2.2,0.1c-0.6,0-0.1,0-0.3,0h0l0.1,0l0.1,0l0.2,0l0.4,0l0.9,0c0.6,0,1.2-0.1,1.8-0.2
					c0.6-0.1,1.2-0.1,1.8-0.3c0.6-0.1,1.2-0.3,1.7-0.4c2.2-0.7,4.4-1.5,6.4-2.7c1.9-1.2,3.8-2.4,5.3-4c0.8-0.7,1.5-1.5,2.2-2.3
					c0.7-0.8,1.2-1.6,1.8-2.3c0.5-0.8,1-1.6,1.5-2.3c0.4-0.8,0.8-1.5,1.2-2.2c0.3-0.7,0.6-1.4,0.9-2.1c0.2-0.6,0.4-1.2,0.6-1.7
					c0.1-0.3,0.2-0.5,0.3-0.8c0.1-0.3,0.1-0.5,0.2-0.8c0.1-0.5,0.2-0.9,0.3-1.3c0.2-0.7,0.3-1,0.3-1c0.3-1.2,1.5-1.9,2.7-1.6
					C398.1,385.8,398.8,386.6,398.9,387.5z"/>
			</g>
		</g>
		<g>
			<g>
				<path fill="#34257A" d="M226.4,308.6c-0.4,0-0.7,0-1.1-0.1c-2.7-0.6-4.3-3.2-3.8-5.9c0.1-0.4,9.1-38.8,51.3-43.1
					c2.7-0.3,5.1,1.7,5.4,4.4c0.3,2.7-1.7,5.1-4.4,5.4c-35.2,3.6-42.6,35.1-42.7,35.4C230.7,307,228.6,308.6,226.4,308.6z"/>
			</g>
			<g>
				<path fill="#34257A" d="M387.7,308.6c-2.3,0-4.3-1.6-4.8-3.9c-0.3-1.3-7.7-31.8-42.7-35.4c-2.7-0.3-4.7-2.7-4.4-5.4
					c0.3-2.7,2.7-4.7,5.4-4.4c42.2,4.3,51.2,42.7,51.3,43.1c0.6,2.7-1.1,5.3-3.8,5.9C388.4,308.5,388.1,308.6,387.7,308.6z"/>
			</g>
		</g>
	</g>
	<path opacity="0.2" fill="#514A84" d="M568,428c-4.8,1.2-4.4,6.1-1.5,20.1c2.9,14.1-7.9,21.5-7.9,21.5
		c14.9-24.8-6.3-44.4-11.2-40.8c-4.3,3.2-2.4,7.8,4.5,19.9c6.9,12-1.8,20.3-1.8,20.3c1.6-10.5-0.2-21.6-9.5-24.5
		c-6.5-2-8.6,2.5-8.7,5.8c-2.5-9.6-30.1-13.9-23,13.2c3.8,14.5,10.8,21.4,17,24.7c-0.7,5.4-2.7,16.9-8.2,28.7
		c-9.5,20.3-24.9,31.8-45.7,34.3c-40.4,4.8-64.1-23.5-72.5-36.2l11.5-6.6c1.5-0.9,2.5-2.3,2.7-4c0.2-1.7-0.3-3.4-1.5-4.6l-8.5-8.7
		c5.7-0.1,11.8-0.8,18.6-2.1c16.8-3.4,38.8-12.3,48.7-35c4.1-9.5,4.7-18.3,4.6-23c17.2-8.3,26.5-22.8,26.9-42.4
		c0.2-11.5-2.7-21.5-4.2-25.9c1.8-3.1,3.2-6.9,4-11.6c4.2-25.4-8.9-41.9-9.5-42.5c-0.2-0.2-0.5-0.5-0.7-0.7c0.2-1,0.4-2,0.6-3
		c3.3-20.4-3.2-48.8-32.1-63.1c-3.2-19.1-17-32.7-39.9-39.5c-14.1-4.2-27.6-4.5-32.6-4.5c-1-1-2.1-2.1-3.2-3.2
		c-4.9-5-10.5-10.6-18.2-15c-7.7-4.4-17.5-7.5-30.9-7.5c-9.9,0-18.8,6.5-25.2,18.2c-1.2,2.3-2.4,4.8-3.4,7.5v403.6h40l-34.4,4.2
		c0,0-5.6,33.6,0,33.6c5.6,0,10.7-23.4,10.7-23.4s116.2-9.2,107-20.9c-4.8-6.2-27.3-7.8-47.5-8l-9.2-57l10.6-6.1
		c3.7,5.6,9.8,13.8,18.6,21.8c17.3,15.6,37.9,23.7,60.1,23.7c3.7,0,7.4-0.2,11.2-0.7c27-3.2,47.7-18.7,59.8-44.9
		c6.3-13.7,8.6-26.7,9.5-33.4C596.4,481.9,575.4,426.1,568,428z M526.7,475.3c-5-1.1-9.9-19.7-2.9-18.9c7.1,0.8,7.8-2.5,7.8-2.5
		c0.2-0.5,0.3-1,0.4-1.6c1.7,6.3,5.4,2,8.4,9.7C545.5,474.6,531.7,476.4,526.7,475.3z"/>
</g>
<g>
	<path fill="#FFEE50" d="M558.5,308.6c0,11,4.9,15.9,15.9,15.9c-11,0-15.9,4.9-15.9,15.9c0-11-4.9-15.9-15.9-15.9
		C553.7,324.4,558.5,319.6,558.5,308.6z"/>
	<path fill="#FFEE50" d="M591.9,347.7c0,15.3,6.8,22.1,22.1,22.1c-15.3,0-22.1,6.8-22.1,22.1c0-15.3-6.8-22.1-22.1-22.1
		C585.1,369.8,591.9,363,591.9,347.7z"/>
	<path fill="#FFEE50" d="M546.7,354c0,1.9,1.5,3.4,3.4,3.4s3.4-1.5,3.4-3.4s-1.5-3.4-3.4-3.4S546.7,352.2,546.7,354z"/>
	<path fill="#FFEE50" d="M596.6,326.5c0,3,2.5,5.5,5.5,5.5c3,0,5.5-2.5,5.5-5.5c0-3-2.5-5.5-5.5-5.5
		C599,321,596.6,323.4,596.6,326.5z"/>
	<path fill="#FFEE50" d="M559.9,384.1c0,1.8,1.4,3.2,3.2,3.2c1.8,0,3.2-1.4,3.2-3.2c0-1.8-1.4-3.2-3.2-3.2
		C561.4,380.8,559.9,382.3,559.9,384.1z"/>
</g>
<g>
	<path fill="#FFEE50" d="M55.5,308.6c0,11-4.9,15.9-15.9,15.9c11,0,15.9,4.9,15.9,15.9c0-11,4.9-15.9,15.9-15.9
		C60.4,324.4,55.5,319.6,55.5,308.6z"/>
	<path fill="#FFEE50" d="M22.1,347.7c0,15.3-6.8,22.1-22.1,22.1c15.3,0,22.1,6.8,22.1,22.1c0-15.3,6.8-22.1,22.1-22.1
		C28.9,369.8,22.1,363,22.1,347.7z"/>
	<path fill="#FFEE50" d="M67.3,354c0,1.9-1.5,3.4-3.4,3.4s-3.4-1.5-3.4-3.4s1.5-3.4,3.4-3.4S67.3,352.2,67.3,354z"/>
	<path fill="#FFEE50" d="M17.5,326.5c0,3-2.5,5.5-5.5,5.5c-3,0-5.5-2.5-5.5-5.5c0-3,2.5-5.5,5.5-5.5C15,321,17.5,323.4,17.5,326.5z"
		/>
	<path fill="#FFEE50" d="M54.1,384.1c0,1.8-1.4,3.2-3.2,3.2c-1.8,0-3.2-1.4-3.2-3.2c0-1.8,1.4-3.2,3.2-3.2
		C52.7,380.8,54.1,382.3,54.1,384.1z"/>
</g>
<circle fill="#FC8C83" cx="307" cy="138.1" r="4.4"/>
<path opacity="0.1" fill="#FFFFFF" d="M381,74c0,40.9-33.1,74-74,74c-40.9,0-74-33.1-74-74c0-40.9,33.1-74,74-74
	C347.9,0,381,33.1,381,74z"/>
<path opacity="0.1" fill="#FFFFFF" d="M373,74c0,36.4-29.5,66-66,66c-36.4,0-66-29.5-66-66c0-36.4,29.5-66,66-66
	C343.5,8,373,37.6,373,74z"/>
<path opacity="0.1" fill="#FFFFFF" d="M362,74c0,30.4-24.6,55-55,55c-30.4,0-55-24.6-55-55c0-30.4,24.6-55,55-55
	C337.4,19,362,43.6,362,74z"/>
<path fill="#FFFFFF" d="M342.3,74c0,19.5-15.8,35.2-35.2,35.2c-19.5,0-35.2-15.8-35.2-35.2c0-19.5,15.8-35.2,35.2-35.2
	C326.5,38.8,342.3,54.6,342.3,74z"/>
<path fill="#34257A" d="M324.4,110.8v23.5c0,2.1-1.7,3.9-3.9,3.9h-27.1c-2.1,0-3.9-1.7-3.9-3.9v-23.5c0-2.1,1.7-3.9,3.9-3.9h27.1
	C322.7,106.9,324.4,108.7,324.4,110.8z"/>
<path fill="#FFFFFF" d="M324.4,119.5v2c-5.7,0.7-11.2,1-16.4,1c-7.2,0-13.7-0.5-18.5-1.1v-2C297.7,120.3,310.7,121.1,324.4,119.5z"
	/>
<path fill="#FFFFFF" d="M324.4,128.9v2c-5.7,0.7-11.2,0.9-16.4,0.9c-7.2,0-13.7-0.5-18.5-1.1v-2
	C297.7,129.7,310.7,130.6,324.4,128.9z"/>
<path fill="#34257A" d="M296.6,110.8c-0.3,0-0.5-0.2-0.5-0.5l-3.6-36.2c0-0.3,0.2-0.5,0.4-0.5c0.3,0,0.5,0.2,0.5,0.4l3.6,36.2
	C297.1,110.5,296.9,110.7,296.6,110.8C296.6,110.8,296.6,110.8,296.6,110.8z"/>
<path fill="#34257A" d="M317.5,110.8C317.5,110.8,317.5,110.8,317.5,110.8c-0.3,0-0.5-0.3-0.5-0.5l3.6-36.2c0-0.3,0.3-0.5,0.5-0.4
	c0.3,0,0.5,0.3,0.4,0.5l-3.6,36.2C318,110.6,317.7,110.8,317.5,110.8z"/>
<path fill="#6B58C0" d="M319.3,73.8c-1.2,0-2.6,0.6-3.9,1.5c-1.2-1-2.7-1.5-4.3-1.5c-1.2,0-2.6,0.6-3.9,1.5c-1.2-1-2.7-1.5-4.3-1.5
	c-1.2,0-2.6,0.6-3.9,1.5c-1.2-1-2.7-1.5-4.3-1.5c-0.3,0-0.5,0.2-0.5,0.5c0,0.3,0.2,0.5,0.5,0.5c1.3,0,2.5,0.5,3.5,1.2
	c-1.4,1.3-2.4,3.1-2.4,5.1c0,2.6,1.5,3.8,3,3.8c1.5,0,3-1,3-3.8c0-2-0.8-3.8-2-5.1c1.1-0.8,2.2-1.3,3.1-1.3c1.3,0,2.5,0.5,3.5,1.2
	c-1.4,1.3-2.4,3.1-2.4,5.1c0,2.6,1.5,3.8,3,3.8c1.5,0,3-1,3-3.8c0-2-0.8-3.8-2-5.1c1.1-0.8,2.2-1.3,3.1-1.3c1.3,0,2.5,0.5,3.5,1.2
	c-1.4,1.3-2.4,3.1-2.4,5.1c0,2.6,1.5,3.8,3,3.8c1.5,0,3-1,3-3.8c0-2-0.8-3.8-2-5.1c1.1-0.8,2.2-1.3,3.1-1.3c0.3,0,0.5-0.2,0.5-0.5
	C319.8,74.1,319.6,73.8,319.3,73.8z M300.8,81.2c0,1.8-0.7,2.8-2,2.8c-1.2,0-2-1.1-2-2.8c0-1.7,0.9-3.3,2.2-4.4
	C300.1,77.9,300.8,79.5,300.8,81.2z M309,81.2c0,1.8-0.7,2.8-2,2.8c-1.2,0-2-1.1-2-2.8c0-1.7,0.9-3.3,2.2-4.4
	C308.3,77.9,309,79.5,309,81.2z M317.2,81.2c0,1.8-0.7,2.8-2,2.8c-1.2,0-2-1.1-2-2.8c0-1.7,0.9-3.3,2.2-4.4
	C316.5,77.9,317.2,79.5,317.2,81.2z"/>
</svg>
